<?xml version="1.0" standalone="no"?>
<!DOCTYPE svg PUBLIC "-//W3C//DTD SVG 20010904//EN"
 "http://www.w3.org/TR/2001/REC-SVG-20010904/DTD/svg10.dtd">
<svg version="1.0" xmlns="http://www.w3.org/2000/svg"
 width="128.000000pt" height="128.000000pt" viewBox="0 0 128.000000 128.000000"
 preserveAspectRatio="xMidYMid meet">
<metadata>
Created by potrace 1.13, written by Peter Selinger 2001-2015
</metadata>
<g transform="translate(0.000000,128.000000) scale(0.100000,-0.100000)"
fill="#000000" stroke="none">
<path d="M80 1261 c-46 -24 -70 -59 -77 -108 -6 -44 2 -55 34 -47 15 4 22 17
27 44 16 99 143 91 139 -8 0 -20 -7 -66 -15 -102 -10 -41 -12 -76 -7 -94 11
-37 12 -38 42 -31 24 6 25 9 20 61 -6 54 -6 55 38 95 113 104 312 153 481 118
155 -32 313 -156 381 -300 107 -225 66 -471 -108 -644 -111 -112 -238 -165
-395 -165 -94 0 -161 15 -249 57 -148 70 -270 229 -302 391 -16 86 -7 221 22
305 19 54 20 69 10 80 -17 17 -46 -20 -67 -86 -22 -71 -30 -232 -15 -309 34
-176 167 -348 331 -426 101 -48 163 -62 270 -62 107 0 169 14 270 62 119 57
221 159 278 278 48 101 62 163 62 270 0 107 -14 169 -62 270 -57 119 -159 221
-278 278 -47 22 -109 45 -138 51 -69 14 -197 14 -264 0 -60 -13 -163 -57 -208
-89 l-30 -21 0 29 c0 35 -37 92 -70 109 -36 18 -80 16 -120 -6z"/>
<path d="M483 1050 c-41 -25 -93 -96 -93 -127 0 -36 32 -29 55 13 41 76 110
104 180 72 29 -13 49 -1 40 24 -16 40 -128 52 -182 18z"/>
<path d="M519 888 c-25 -40 -22 -118 6 -148 54 -60 121 25 95 120 -18 66 -68
80 -101 28z"/>
<path d="M885 900 c-11 -12 -20 -41 -23 -73 -3 -42 0 -57 18 -79 30 -39 65
-37 86 4 46 89 -22 213 -81 148z"/>
<path d="M743 540 c-40 -11 -93 -31 -117 -45 -57 -33 -117 -100 -110 -120 9
-23 23 -18 69 24 24 22 61 49 84 60 51 27 152 51 212 51 48 0 71 13 62 36 -8
20 -112 17 -200 -6z"/>
</g>
</svg>
